<?xml version="1.0" standalone="no"?>
<!DOCTYPE svg PUBLIC "-//W3C//DTD SVG 20010904//EN"
 "http://www.w3.org/TR/2001/REC-SVG-20010904/DTD/svg10.dtd">
<svg version="1.0" xmlns="http://www.w3.org/2000/svg"
 width="832.000000pt" height="832.000000pt" viewBox="0 0 832.000000 832.000000"
 preserveAspectRatio="xMidYMid meet">
<metadata>
Created by potrace 1.14, written by Peter Selinger 2001-2017
</metadata>
<g transform="translate(0.000000,832.000000) scale(0.100000,-0.100000)"
fill="#000000" stroke="none">
<path d="M1089 8316 c-2 -2 -34 -6 -71 -10 -36 -3 -84 -9 -105 -12 -21 -3 -43
-7 -48 -8 -6 -1 -35 -16 -65 -33 -90 -51 -173 -145 -201 -228 -14 -43 -16 -52
-27 -105 -4 -19 -7 -363 -7 -765 l0 -730 1320 -2 c726 -1 1327 -2 1335 -2 9
-1 216 -201 460 -446 245 -245 449 -443 454 -442 5 2 210 203 455 447 l446
444 1332 -1 c1223 -1 1332 1 1335 16 6 28 1 1362 -5 1436 -19 216 -141 374
-322 415 -28 7 -61 14 -75 18 -27 6 -6204 14 -6211 8z"/>
<path d="M2070 4178 c0 -905 -1 -958 -17 -959 -10 0 -345 -1 -746 -1 l-727 0
5 -302 c4 -299 8 -387 20 -521 10 -104 13 -123 20 -135 3 -5 2 -10 -4 -10 -7
0 -7 -8 -2 -23 5 -13 12 -44 15 -68 3 -24 8 -57 11 -74 21 -115 27 -143 35
-170 5 -16 11 -41 13 -55 2 -14 6 -32 9 -40 3 -8 20 -60 38 -115 49 -154 137
-348 201 -443 16 -24 29 -45 29 -48 0 -5 41 -65 50 -74 3 -3 17 -21 30 -40 75
-108 267 -309 390 -409 36 -29 74 -59 84 -68 39 -32 223 -152 281 -184 219
-120 441 -208 630 -250 22 -5 49 -11 60 -14 49 -12 171 -34 222 -41 20 -2 48
-6 62 -9 25 -4 65 -8 176 -20 86 -8 216 -17 330 -22 151 -6 1478 -5 1595 1
189 10 367 22 450 32 30 3 69 7 85 9 32 3 117 15 150 21 10 2 37 6 60 9 22 4
81 15 130 26 50 11 98 22 108 24 10 2 27 7 37 10 10 3 29 8 42 11 37 8 39 9
127 38 149 49 313 122 436 196 28 16 57 33 65 37 8 3 17 9 20 12 3 3 12 11 21
16 166 104 420 334 540 490 29 39 56 72 59 75 18 15 130 197 176 285 69 131
158 363 179 465 2 8 4 15 5 15 2 0 2 1 30 135 12 58 23 118 25 133 2 16 6 40
9 55 5 25 10 65 21 177 8 79 16 213 19 317 2 58 6 110 10 116 3 6 2 13 -4 17
-6 4 -7 11 -4 17 8 12 11 376 4 388 -3 4 -334 8 -736 8 -403 0 -736 2 -741 5
-6 4 -10 368 -11 949 0 519 -1 948 -1 954 -1 7 -187 10 -631 10 l-630 -1 -1
-25 c0 -14 -1 -445 -1 -957 l-1 -933 -21 -1 c-118 -3 -1556 0 -1562 4 -5 3 -9
433 -9 956 0 636 -3 951 -10 952 -5 1 -290 2 -632 3 l-623 2 0 -958z"/>
</g>
</svg>
